<?xml version="1.0" encoding="utf-8"?>
<!-- Generator: Adobe Illustrator 15.1.0, SVG Export Plug-In . SVG Version: 6.00 Build 0)  -->
<!DOCTYPE svg PUBLIC "-//W3C//DTD SVG 1.1//EN" "http://www.w3.org/Graphics/SVG/1.1/DTD/svg11.dtd">
<svg version="1.1" id="Layer_1" xmlns="http://www.w3.org/2000/svg" xmlns:xlink="http://www.w3.org/1999/xlink" x="0px" y="0px"
	 width="31.182px" height="31.182px" viewBox="0 0 31.182 31.182" enable-background="new 0 0 31.182 31.182" xml:space="preserve">
<g>
	<path fill="#0E6BAD" d="M27.402,25.715c0.281,0.25,0.281,0.516,0,0.797l-1.031,1.031c-0.281,0.281-0.547,0.281-0.797,0
		l-5.672-5.672c-0.125-0.125-0.188-0.25-0.188-0.375V20.84c-1.844,1.594-3.969,2.391-6.375,2.391c-2.688,0-4.984-0.953-6.891-2.859
		S3.59,16.168,3.59,13.48c0-2.688,0.953-4.984,2.859-6.891C8.355,4.684,10.652,3.73,13.34,3.73s4.984,0.954,6.891,2.859
		c1.906,1.906,2.859,4.203,2.859,6.891c0,2.407-0.797,4.531-2.391,6.375h0.656c0.156,0,0.281,0.063,0.375,0.188L27.402,25.715z
		 M8.043,18.777c1.469,1.469,3.234,2.203,5.297,2.203s3.828-0.734,5.297-2.203s2.203-3.234,2.203-5.297s-0.734-3.828-2.203-5.297
		C17.168,6.715,15.402,5.98,13.34,5.98S9.512,6.715,8.043,8.184C6.574,9.653,5.84,11.418,5.84,13.48S6.574,17.309,8.043,18.777z"/>
</g>
</svg>
