<?xml version="1.0" encoding="utf-8"?>
<!-- Generator: Adobe Illustrator 15.1.0, SVG Export Plug-In . SVG Version: 6.00 Build 0)  -->
<!DOCTYPE svg PUBLIC "-//W3C//DTD SVG 1.1//EN" "http://www.w3.org/Graphics/SVG/1.1/DTD/svg11.dtd">
<svg version="1.1" id="Layer_1" xmlns="http://www.w3.org/2000/svg" xmlns:xlink="http://www.w3.org/1999/xlink" x="0px" y="0px"
	 width="31.182px" height="31.182px" viewBox="0 0 31.182 31.182" enable-background="new 0 0 31.182 31.182" xml:space="preserve">
<g>
	<path fill="#84D2DA" d="M15.59,18.23c-0.229,0-0.509-0.078-0.838-0.236c-0.329-0.157-0.595-0.301-0.795-0.43
		s-0.494-0.344-0.881-0.645s-0.595-0.451-0.623-0.451c-3.495-2.549-5.987-4.397-7.477-5.543c-0.258-0.2-0.386-0.473-0.386-0.816
		V9.293c0-0.573,0.2-1.06,0.601-1.461C5.593,7.431,6.079,7.23,6.652,7.23h17.875c0.573,0,1.06,0.201,1.461,0.602
		C26.39,8.233,26.59,8.72,26.59,9.293v0.816c0,0.344-0.129,0.616-0.387,0.816c-1.403,1.089-3.896,2.937-7.477,5.543
		c-0.028,0-0.236,0.15-0.623,0.451s-0.681,0.516-0.881,0.645s-0.466,0.272-0.795,0.43C16.099,18.152,15.819,18.23,15.59,18.23z
		 M26.16,12.688c0.086-0.086,0.179-0.1,0.279-0.043c0.101,0.058,0.15,0.144,0.15,0.258v8.766c0,0.573-0.2,1.061-0.602,1.461
		c-0.401,0.401-0.888,0.602-1.461,0.602H6.652c-0.573,0-1.06-0.2-1.461-0.602c-0.401-0.4-0.601-0.888-0.601-1.461v-8.766
		c0-0.114,0.05-0.193,0.15-0.236c0.101-0.043,0.193-0.036,0.279,0.021c0.945,0.716,3.151,2.335,6.617,4.855
		c0.058,0.058,0.251,0.215,0.58,0.473s0.595,0.451,0.795,0.58s0.458,0.287,0.773,0.473c0.315,0.187,0.623,0.322,0.924,0.408
		s0.595,0.129,0.881,0.129c0.258,0,0.516-0.035,0.773-0.107c0.258-0.071,0.501-0.157,0.73-0.258c0.229-0.1,0.473-0.236,0.73-0.408
		s0.473-0.322,0.645-0.451s0.372-0.279,0.602-0.451s0.387-0.301,0.473-0.387C22.923,15.108,25.129,13.49,26.16,12.688z"/>
</g>
</svg>
