<?xml version="1.0" encoding="utf-8"?>
<!-- Generator: Adobe Illustrator 15.1.0, SVG Export Plug-In . SVG Version: 6.00 Build 0)  -->
<!DOCTYPE svg PUBLIC "-//W3C//DTD SVG 1.1//EN" "http://www.w3.org/Graphics/SVG/1.1/DTD/svg11.dtd">
<svg version="1.1" id="Layer_1" xmlns="http://www.w3.org/2000/svg" xmlns:xlink="http://www.w3.org/1999/xlink" x="0px" y="0px"
	 width="31.182px" height="31.182px" viewBox="0 0 31.182 31.182" enable-background="new 0 0 31.182 31.182" xml:space="preserve">
<g>
	<path fill="#0E6BAD" d="M9.4,3.777c0.594-0.156,1.016,0.047,1.266,0.609l2.25,5.25c0.219,0.532,0.109,0.969-0.328,1.313
		l-2.813,2.344c0.844,1.813,1.977,3.438,3.398,4.875s3.055,2.578,4.898,3.422l2.297-2.813c0.375-0.438,0.813-0.547,1.313-0.328
		l5.25,2.25c0.594,0.25,0.812,0.672,0.656,1.266l-1.125,4.875c-0.125,0.594-0.484,0.891-1.078,0.891c-6,0-11.125-2.125-15.375-6.375
		S3.635,11.98,3.635,5.98c0-0.593,0.297-0.953,0.891-1.078L9.4,3.777z"/>
</g>
</svg>
