<?xml version="1.0" encoding="utf-8"?>
<!-- Generator: Adobe Illustrator 15.1.0, SVG Export Plug-In . SVG Version: 6.00 Build 0)  -->
<!DOCTYPE svg PUBLIC "-//W3C//DTD SVG 1.1//EN" "http://www.w3.org/Graphics/SVG/1.1/DTD/svg11.dtd">
<svg version="1.1" id="Layer_1" xmlns="http://www.w3.org/2000/svg" xmlns:xlink="http://www.w3.org/1999/xlink" x="0px" y="0px"
	 width="31.182px" height="31.182px" viewBox="0 0 31.182 31.182" enable-background="new 0 0 31.182 31.182" xml:space="preserve">
<g>
	<path fill="#FFFFFF" d="M25.935,11.378c0,7.044-5.362,15.161-15.161,15.161c-3.02,0-5.824-0.875-8.183-2.393
		c0.429,0.05,0.841,0.066,1.287,0.066c2.491,0,4.784-0.842,6.615-2.277c-2.342-0.049-4.306-1.583-4.981-3.695
		c0.329,0.05,0.659,0.083,1.006,0.083c0.479,0,0.957-0.065,1.402-0.182c-2.441-0.495-4.272-2.64-4.272-5.229v-0.066
		c0.709,0.396,1.534,0.643,2.408,0.676c-1.436-0.957-2.376-2.59-2.376-4.438c0-0.99,0.265-1.897,0.727-2.689
		c2.623,3.233,6.565,5.345,10.987,5.576c-0.083-0.396-0.132-0.809-0.132-1.221c0-2.937,2.375-5.329,5.328-5.329
		c1.534,0,2.92,0.643,3.894,1.683c1.204-0.231,2.359-0.676,3.382-1.287c-0.396,1.238-1.237,2.277-2.343,2.937
		c1.072-0.115,2.112-0.412,3.068-0.825c-0.726,1.056-1.633,1.996-2.672,2.755C25.935,10.916,25.935,11.147,25.935,11.378z"/>
</g>
</svg>
