<?xml version="1.0" encoding="utf-8"?>
<!-- Generator: Adobe Illustrator 15.1.0, SVG Export Plug-In . SVG Version: 6.00 Build 0)  -->
<!DOCTYPE svg PUBLIC "-//W3C//DTD SVG 1.1//EN" "http://www.w3.org/Graphics/SVG/1.1/DTD/svg11.dtd">
<svg version="1.1" id="Layer_1" xmlns="http://www.w3.org/2000/svg" xmlns:xlink="http://www.w3.org/1999/xlink" x="0px" y="0px"
	 width="31.182px" height="31.182px" viewBox="0 0 31.182 31.182" enable-background="new 0 0 31.182 31.182" xml:space="preserve">
<g>
	<path fill="#0E6BAD" d="M20.309,17.23c1.719,0,3.195,0.617,4.43,1.852s1.852,2.711,1.852,4.43v1.969
		c0,0.625-0.219,1.156-0.656,1.594s-0.969,0.656-1.594,0.656H7.84c-0.625,0-1.156-0.219-1.594-0.656S5.59,26.105,5.59,25.48v-1.969
		c0-1.719,0.617-3.195,1.851-4.43s2.711-1.852,4.43-1.852h0.797c1.094,0.5,2.234,0.75,3.422,0.75s2.328-0.25,3.422-0.75H20.309z
		 M20.332,13.973c-1.172,1.172-2.586,1.758-4.242,1.758s-3.07-0.586-4.242-1.758S10.09,11.387,10.09,9.73
		c0-1.656,0.586-3.07,1.758-4.242S14.434,3.73,16.09,3.73s3.07,0.586,4.242,1.758S22.09,8.074,22.09,9.73
		C22.09,11.387,21.504,12.801,20.332,13.973z"/>
</g>
</svg>
