<?xml version="1.0" encoding="utf-8"?>
<!-- Generator: Adobe Illustrator 15.1.0, SVG Export Plug-In . SVG Version: 6.00 Build 0)  -->
<!DOCTYPE svg PUBLIC "-//W3C//DTD SVG 1.1//EN" "http://www.w3.org/Graphics/SVG/1.1/DTD/svg11.dtd">
<svg version="1.1" id="Layer_1" xmlns="http://www.w3.org/2000/svg" xmlns:xlink="http://www.w3.org/1999/xlink" x="0px" y="0px"
	 width="31.182px" height="31.182px" viewBox="0 0 31.182 31.182" enable-background="new 0 0 31.182 31.182" xml:space="preserve">
<g>
	<path fill="#0E6BAD" d="M26.027,26.23c0.375,0,0.563,0.188,0.563,0.563v0.938h-21v-0.938c0-0.375,0.187-0.563,0.562-0.563H7.09
		V4.855c0-0.312,0.109-0.578,0.328-0.797C7.637,3.84,7.902,3.73,8.215,3.73h15.75c0.313,0,0.578,0.11,0.797,0.328
		c0.219,0.219,0.328,0.485,0.328,0.797V26.23H26.027z M11.59,7.293v1.875c0,0.375,0.188,0.563,0.563,0.563h1.875
		c0.375,0,0.563-0.188,0.563-0.563V7.293c0-0.375-0.188-0.563-0.563-0.563h-1.875C11.777,6.73,11.59,6.918,11.59,7.293z
		 M11.59,11.793v1.875c0,0.375,0.188,0.563,0.563,0.563h1.875c0.375,0,0.563-0.188,0.563-0.563v-1.875
		c0-0.375-0.188-0.563-0.563-0.563h-1.875C11.777,11.23,11.59,11.418,11.59,11.793z M14.027,18.73c0.375,0,0.563-0.188,0.563-0.563
		v-1.875c0-0.375-0.188-0.563-0.563-0.563h-1.875c-0.375,0-0.563,0.188-0.563,0.563v1.875c0,0.375,0.188,0.563,0.563,0.563H14.027z
		 M17.59,26.23v-3.938c0-0.375-0.188-0.563-0.563-0.563h-1.875c-0.375,0-0.563,0.188-0.563,0.563v3.938H17.59z M20.59,9.168V7.293
		c0-0.375-0.188-0.563-0.563-0.563h-1.875c-0.375,0-0.563,0.188-0.563,0.563v1.875c0,0.375,0.188,0.563,0.563,0.563h1.875
		C20.402,9.73,20.59,9.543,20.59,9.168z M20.59,13.668v-1.875c0-0.375-0.188-0.563-0.563-0.563h-1.875
		c-0.375,0-0.563,0.188-0.563,0.563v1.875c0,0.375,0.188,0.563,0.563,0.563h1.875C20.402,14.23,20.59,14.043,20.59,13.668z
		 M20.59,18.168v-1.875c0-0.375-0.188-0.563-0.563-0.563h-1.875c-0.375,0-0.563,0.188-0.563,0.563v1.875
		c0,0.375,0.188,0.563,0.563,0.563h1.875C20.402,18.73,20.59,18.543,20.59,18.168z"/>
</g>
</svg>
