<?xml version="1.0" encoding="utf-8"?>
<!-- Generator: Adobe Illustrator 15.1.0, SVG Export Plug-In . SVG Version: 6.00 Build 0)  -->
<!DOCTYPE svg PUBLIC "-//W3C//DTD SVG 1.1//EN" "http://www.w3.org/Graphics/SVG/1.1/DTD/svg11.dtd">
<svg version="1.1" id="Layer_1" xmlns="http://www.w3.org/2000/svg" xmlns:xlink="http://www.w3.org/1999/xlink" x="0px" y="0px"
	 width="31.182px" height="31.182px" viewBox="0 0 31.182 31.182" enable-background="new 0 0 31.182 31.182" xml:space="preserve">
<g>
	<path fill="#8192AB" d="M8.607,9.167c1.937-1.575,4.275-2.363,7.011-2.363c2.738,0,5.075,0.788,7.011,2.363
		c1.937,1.576,2.905,3.474,2.905,5.694c0,2.221-0.969,4.12-2.905,5.694c-1.937,1.576-4.273,2.363-7.011,2.363
		c-1.213,0-2.414-0.18-3.603-0.542c-1.678,1.187-3.473,1.781-5.384,1.781c-0.413,0-0.697-0.188-0.853-0.562
		c-0.154-0.375-0.103-0.703,0.155-0.987c0.052-0.052,0.174-0.188,0.368-0.407c0.194-0.219,0.44-0.567,0.736-1.046
		c0.297-0.478,0.537-0.949,0.716-1.414c-1.368-1.445-2.052-3.072-2.052-4.88C5.703,12.64,6.67,10.742,8.607,9.167z M15.619,21.059
		c2.221,0,4.12-0.606,5.694-1.82c1.576-1.214,2.363-2.673,2.363-4.377c0-1.705-0.787-3.164-2.363-4.377
		c-1.574-1.213-3.473-1.821-5.694-1.821c-2.221,0-4.119,0.607-5.694,1.821c-1.574,1.214-2.363,2.673-2.363,4.377
		c0,1.317,0.517,2.518,1.549,3.602l0.775,0.853L9.498,20.4c-0.206,0.517-0.465,1.046-0.774,1.588
		c0.774-0.258,1.511-0.645,2.208-1.162l0.774-0.504l0.891,0.271C13.58,20.903,14.586,21.059,15.619,21.059z"/>
</g>
</svg>
