<?xml version="1.0" encoding="utf-8"?>
<!-- Generator: Adobe Illustrator 15.1.0, SVG Export Plug-In . SVG Version: 6.00 Build 0)  -->
<!DOCTYPE svg PUBLIC "-//W3C//DTD SVG 1.1//EN" "http://www.w3.org/Graphics/SVG/1.1/DTD/svg11.dtd">
<svg version="1.1" id="Layer_1" xmlns="http://www.w3.org/2000/svg" xmlns:xlink="http://www.w3.org/1999/xlink" x="0px" y="0px"
	 width="31.182px" height="31.182px" viewBox="0 0 31.182 31.182" enable-background="new 0 0 31.182 31.182" xml:space="preserve">
<g>
	<path fill="#0E6BAD" d="M15.59,18.73c-0.25,0-0.555-0.086-0.914-0.258s-0.648-0.328-0.867-0.469s-0.539-0.375-0.961-0.703
		s-0.648-0.492-0.68-0.492c-3.813-2.781-6.531-4.797-8.156-6.047C3.73,10.543,3.59,10.246,3.59,9.871V8.98
		c0-0.625,0.218-1.156,0.656-1.594C4.684,6.949,5.215,6.73,5.84,6.73h19.5c0.625,0,1.156,0.219,1.594,0.656
		c0.438,0.438,0.656,0.969,0.656,1.594v0.891c0,0.375-0.141,0.672-0.422,0.891c-1.531,1.188-4.25,3.204-8.156,6.047
		c-0.031,0-0.258,0.164-0.68,0.492s-0.742,0.563-0.961,0.703s-0.508,0.297-0.867,0.469S15.84,18.73,15.59,18.73z M27.121,12.684
		c0.094-0.094,0.195-0.109,0.305-0.047c0.109,0.063,0.164,0.157,0.164,0.281v9.563c0,0.625-0.219,1.156-0.656,1.594
		s-0.969,0.656-1.594,0.656H5.84c-0.625,0-1.156-0.219-1.594-0.656S3.59,23.105,3.59,22.48v-9.563c0-0.125,0.054-0.211,0.164-0.258
		s0.211-0.039,0.305,0.023c1.031,0.781,3.438,2.547,7.219,5.297c0.063,0.063,0.273,0.234,0.633,0.516s0.648,0.492,0.867,0.633
		s0.5,0.313,0.844,0.516s0.68,0.352,1.008,0.445s0.648,0.141,0.961,0.141c0.281,0,0.563-0.039,0.844-0.117s0.547-0.172,0.797-0.281
		s0.516-0.258,0.797-0.445s0.516-0.352,0.703-0.492s0.406-0.305,0.656-0.492s0.422-0.328,0.516-0.422
		C23.59,15.325,25.996,13.559,27.121,12.684z"/>
</g>
</svg>
