<?xml version="1.0" encoding="utf-8"?>
<!-- Generator: Adobe Illustrator 15.1.0, SVG Export Plug-In . SVG Version: 6.00 Build 0)  -->
<!DOCTYPE svg PUBLIC "-//W3C//DTD SVG 1.1//EN" "http://www.w3.org/Graphics/SVG/1.1/DTD/svg11.dtd">
<svg version="1.1" id="Layer_1" xmlns="http://www.w3.org/2000/svg" xmlns:xlink="http://www.w3.org/1999/xlink" x="0px" y="0px"
	 width="31.182px" height="31.182px" viewBox="0 0 31.182 31.182" enable-background="new 0 0 31.182 31.182" xml:space="preserve">
<g>
	<path fill="#8192AB" d="M23.51,6.976c0.592,0,1.094,0.208,1.507,0.62c0.414,0.414,0.619,0.916,0.619,1.506v15.591
		c0,0.59-0.205,1.091-0.619,1.506c-0.413,0.414-0.915,0.62-1.507,0.62H7.919c-0.59,0-1.091-0.206-1.505-0.62
		c-0.413-0.415-0.62-0.916-0.62-1.506V9.103c0-0.59,0.207-1.093,0.62-1.506c0.414-0.413,0.915-0.62,1.505-0.62h2.126V4.673
		c0-0.354,0.177-0.532,0.532-0.532h1.772c0.354,0,0.532,0.177,0.532,0.532v2.303h5.669V4.673c0-0.354,0.178-0.532,0.532-0.532h1.771
		c0.354,0,0.53,0.177,0.53,0.532v2.303H23.51z M23.245,24.693c0.176,0,0.265-0.088,0.265-0.266V11.229H7.919v13.199
		c0,0.178,0.089,0.266,0.266,0.266H23.245z"/>
</g>
</svg>
