<?xml version="1.0" encoding="utf-8"?>
<!-- Generator: Adobe Illustrator 15.1.0, SVG Export Plug-In . SVG Version: 6.00 Build 0)  -->
<!DOCTYPE svg PUBLIC "-//W3C//DTD SVG 1.1//EN" "http://www.w3.org/Graphics/SVG/1.1/DTD/svg11.dtd">
<svg version="1.1" id="Layer_1" xmlns="http://www.w3.org/2000/svg" xmlns:xlink="http://www.w3.org/1999/xlink" x="0px" y="0px"
	 width="31.182px" height="31.182px" viewBox="0 0 31.182 31.182" enable-background="new 0 0 31.182 31.182" xml:space="preserve">
<g>
	<path fill="#84D2DA" d="M9.916,4.523c0.544-0.143,0.931,0.043,1.16,0.559l2.063,4.813c0.2,0.487,0.101,0.888-0.301,1.203
		l-2.578,2.148c0.773,1.662,1.812,3.151,3.115,4.469c1.304,1.318,2.8,2.363,4.49,3.137l2.105-2.578
		c0.344-0.4,0.745-0.501,1.203-0.301l4.813,2.063c0.544,0.229,0.744,0.616,0.602,1.16l-1.031,4.469
		c-0.114,0.544-0.444,0.816-0.988,0.816c-5.5,0-10.198-1.948-14.094-5.844S4.631,12.043,4.631,6.543
		c0-0.544,0.272-0.874,0.816-0.988L9.916,4.523z"/>
</g>
</svg>
