<?xml version="1.0" encoding="utf-8"?>
<!-- Generator: Adobe Illustrator 15.1.0, SVG Export Plug-In . SVG Version: 6.00 Build 0)  -->
<!DOCTYPE svg PUBLIC "-//W3C//DTD SVG 1.1//EN" "http://www.w3.org/Graphics/SVG/1.1/DTD/svg11.dtd">
<svg version="1.1" id="Layer_1" xmlns="http://www.w3.org/2000/svg" xmlns:xlink="http://www.w3.org/1999/xlink" x="0px" y="0px"
	 width="31.182px" height="31.182px" viewBox="0 0 31.182 31.182" enable-background="new 0 0 31.182 31.182" xml:space="preserve">
<g>
	<path fill="#FFFFFF" d="M27.27,20.668c-0.092,1.822-0.508,3.438-1.839,4.768c-1.33,1.336-2.945,1.752-4.769,1.839
		c-1.879,0.106-7.51,0.106-9.389,0c-1.823-0.092-3.434-0.508-4.769-1.839c-1.336-1.33-1.752-2.945-1.839-4.768
		c-0.106-1.879-0.106-7.511,0-9.39C4.758,9.455,5.169,7.84,6.505,6.51c1.335-1.331,2.95-1.747,4.769-1.833
		c1.879-0.107,7.51-0.107,9.389,0c1.823,0.091,3.438,0.508,4.769,1.838c1.336,1.331,1.752,2.945,1.839,4.769
		C27.376,13.162,27.376,18.789,27.27,20.668z M25.299,15.976c0-1.656,0.137-5.21-0.457-6.708c-0.401-1-1.168-1.767-2.163-2.163
		c-1.493-0.589-5.053-0.457-6.708-0.457c-1.656,0-5.211-0.137-6.709,0.457c-1,0.401-1.767,1.168-2.163,2.163
		C6.51,10.76,6.642,14.32,6.642,15.976c0,1.655-0.137,5.21,0.457,6.708c0.401,1,1.168,1.768,2.163,2.163
		c1.493,0.589,5.053,0.457,6.709,0.457c1.655,0,5.21,0.138,6.708-0.457c1-0.401,1.767-1.168,2.163-2.163
		C25.436,21.19,25.299,17.631,25.299,15.976z M21.805,15.976c0,3.229-2.604,5.835-5.834,5.835c-3.23,0-5.835-2.605-5.835-5.835
		c0-3.23,2.604-5.835,5.835-5.835C19.2,10.141,21.805,12.746,21.805,15.976z M19.764,15.976c0-2.092-1.701-3.793-3.793-3.793
		c-2.093,0-3.794,1.701-3.794,3.793c0,2.092,1.706,3.793,3.794,3.793C18.058,19.769,19.764,18.067,19.764,15.976z M22.044,11.263
		c-0.757,0-1.361-0.609-1.361-1.361s0.609-1.361,1.361-1.361c0.751,0,1.36,0.609,1.36,1.361
		C23.404,10.659,22.795,11.263,22.044,11.263z"/>
</g>
</svg>
